<?xml version="1.0" encoding="utf-8"?><svg xmlns="http://www.w3.org/2000/svg" xmlns:xlink="http://www.w3.org/1999/xlink" width="1495" height="762" preserveAspectRatio="xMidYMid" viewBox="0 0 1495 762" style="z-index:1;margin-right:-2px;display:block;background-repeat-y:initial;background-repeat-x:initial;background-color:rgb(255, 255, 255);animation-play-state:paused" ><g transform="translate(747.5,381) scale(1,1) translate(-747.5,-381)" style="transform:matrix(1, 0, 0, 1, 0, 0);animation-play-state:paused" ><linearGradient id="lg-0.7331894429592187" x1="0" x2="1" y1="0" y2="0" style="animation-play-state:paused" ><stop stop-color="#ff00ff" offset="0" style="animation-play-state:paused" ></stop>

  
<stop stop-color="#00ffff" offset="1" style="animation-play-state:paused" ></stop></linearGradient>
<path d="M 0 0 L 0 692.72 Q 149.5 617.594 299 594.663 T 598 625.063 T 897 440.207 T 1196 388.078 T 1495 417.678 L 1495 0 Z" fill="url(#lg-0.7331894429592187)" opacity="0.4" style="opacity:0.4;animation-play-state:paused" ></path>
<path d="M 0 0 L 0 702.448 Q 149.5 693.756 299 676.25 T 598 510.859 T 897 427.137 T 1196 394.561 T 1495 345.158 L 1495 0 Z" fill="url(#lg-0.7331894429592187)" opacity="0.4" style="opacity:0.4;animation-play-state:paused" ></path>
<path d="M 0 0 L 0 686.831 Q 149.5 663.073 299 635.116 T 598 572.929 T 897 509.36 T 1196 382.525 T 1495 320.673 L 1495 0 Z" fill="url(#lg-0.7331894429592187)" opacity="0.4" style="opacity:0.4;animation-play-state:paused" ></path>
<path d="M 0 0 L 0 691.399 Q 149.5 640.379 299 613.452 T 598 515.366 T 897 528.216 T 1196 338.043 T 1495 273.976 L 1495 0 Z" fill="url(#lg-0.7331894429592187)" opacity="0.4" style="opacity:0.4;animation-play-state:paused" ></path>
<path d="M 0 0 L 0 714.845 Q 149.5 601.623 299 569.594 T 598 583.44 T 897 517.706 T 1196 362.787 T 1495 347.956 L 1495 0 Z" fill="url(#lg-0.7331894429592187)" opacity="0.4" style="opacity:0.4;animation-play-state:paused" ></path></g></svg>